<svg version="1.1" id="Layer_1" xmlns="http://www.w3.org/2000/svg" xmlns:xlink="http://www.w3.org/1999/xlink" x="0px" y="0px" viewBox="0 0 500 500" style="width: 151px;" xml:space="preserve" data-imageid="neutral-face-47" imageName="Neutral Face" class="illustrations_image">
<style type="text/css">
	.st0_neutral-face-47{fill:#FFFFFF;}
	.st1_neutral-face-47{fill:#093F68;}
	.st2_neutral-face-47{fill:#FFBC0E;}
	.st3_neutral-face-47{fill:#68E1FD;}
</style>
<g id="circle_neutral-face-47">
	<path class="st0_neutral-face-47" d="M427.6,253.3c0,59.6-29.9,115.3-79.7,148.2c-59.3,39.3-136.4,39.3-195.7,0c-5.9-3.9-11.5-8.1-16.8-12.6&#10;&#9;&#9;c-74.9-63.3-84.2-175.4-20.8-250.2c15.8-18.6,35.2-33.8,57.1-44.6l0,0c43-21.2,92.8-24.1,138-8l0,0&#10;&#9;&#9;C380.3,111.2,427.6,178.2,427.6,253.3z"/>
	<path class="st1_neutral-face-47" d="M250,432.9c-35.2,0-69.6-10.3-99-29.8c-5.9-3.9-11.6-8.2-17-12.8C58.3,326.3,48.8,213,112.9,137.3&#10;&#9;&#9;c15.9-18.8,35.6-34.2,57.7-45.1c0,0,0.1-0.1,0.2-0.1c43.6-21.4,93.9-24.3,139.6-8l0,0h0.1c93.4,33.4,142,136.3,108.6,229.7&#10;&#9;&#9;c-13.1,36.6-37.7,67.9-70.1,89.3C319.7,422.5,285.2,432.9,250,432.9L250,432.9z M172.7,95.7l-0.2,0.1c-87,42.8-122.8,148-80,234.9&#10;&#9;&#9;c10.7,21.7,25.7,40.9,44.1,56.5c16.2,13.7,34.7,24.4,54.6,31.5c91.7,31.5,191.5-17.3,223-109C445.3,219.4,398.5,121,309,88&#10;&#9;&#9;l-0.1-0.1C264.3,72.1,215.2,74.9,172.7,95.7L172.7,95.7z"/>
</g>
<g id="character_neutral-face-47">
	<rect x="237.1" y="274.7" class="st2_neutral-face-47" width="25.6" height="33.5"/>
	<path class="st1_neutral-face-47" d="M262.7,310.3h-25.6c-1.1,0-2.1-0.9-2.1-2.1v-33.5c0-1.1,0.9-2.1,2.1-2.1h25.6c1.1,0,2.1,0.9,2.1,2.1v33.5&#10;&#9;&#9;C264.7,309.4,263.8,310.3,262.7,310.3z M239.1,306.1h21.5v-29.4h-21.5V306.1z"/>
	<path class="st3_neutral-face-47 targetColor" d="M347.9,374.5v26.9c-59.3,39.3-136.4,39.3-195.7,0v-26.9c0-8,1-16,3.1-23.7c8.4-32,33.5-55.2,63.2-55.2h63.3&#10;&#9;&#9;C318.2,295.6,347.9,330.9,347.9,374.5z" style="fill: rgb(6, 57, 75);"/>
	<path class="st1_neutral-face-47" d="M250,432.9c-35.2,0-69.6-10.3-99-29.8c-0.6-0.4-0.9-1-0.9-1.7v-26.9c0-8.2,1-16.3,3.1-24.2&#10;&#9;&#9;c8.9-33.9,35.1-56.8,65.2-56.8h63.3c37.7,0,68.3,36.3,68.3,81v26.9c0,0.7-0.3,1.3-0.9,1.7C319.7,422.6,285.2,432.9,250,432.9&#10;&#9;&#9;L250,432.9z M154.2,400.3c58.2,38,133.4,38,191.6,0v-25.8c0-42.4-28.8-76.9-64.2-76.9h-63.3c-28.1,0-52.7,21.6-61.2,53.7&#10;&#9;&#9;c-2,7.6-3,15.3-3,23.2L154.2,400.3z M347.9,401.4L347.9,401.4z"/>
	<path class="st1_neutral-face-47" d="M190.6,422.7c-1.1,0-2.1-0.9-2.1-2.1v-64.2c0-1.1,0.9-2.1,2.1-2.1c1.1,0,2.1,0.9,2.1,2.1c0,0,0,0,0,0v64.2&#10;&#9;&#9;C192.7,421.8,191.8,422.7,190.6,422.7z"/>
	<path class="st1_neutral-face-47" d="M309.4,422.7c-1.1,0-2.1-0.9-2.1-2.1v-64.2c0-1.1,0.9-2.1,2.1-2.1c1.1,0,2.1,0.9,2.1,2.1c0,0,0,0,0,0v64.2&#10;&#9;&#9;C311.4,421.8,310.5,422.7,309.4,422.7z"/>
	<polygon class="st1_neutral-face-47" points="250,363.6 229.1,295.6 270.9,295.6 &#9;"/>
	<path class="st1_neutral-face-47" d="M250,365.7c-0.9,0-1.8-0.6-2-1.5l-20.9-68c-0.3-1.1,0.3-2.2,1.4-2.6c0.2-0.1,0.4-0.1,0.6-0.1h41.7&#10;&#9;&#9;c1.1,0,2.1,0.9,2.1,2c0,0.2,0,0.4-0.1,0.6l-20.9,68C251.8,365.1,250.9,365.7,250,365.7z M231.9,297.7l18.1,58.9l18.1-58.9&#10;&#9;&#9;L231.9,297.7z"/>
	<circle class="st2_neutral-face-47" cx="266.1" cy="178" r="108.9"/>
	<path class="st1_neutral-face-47" d="M266.2,289c-61.3,0-111-49.8-111-111.2c0-11.7,1.9-23.4,5.5-34.6l0,0c19.2-58.1,82-89.7,140.1-70.4&#10;&#9;&#9;s89.7,82,70.4,140.1C356.3,258.3,313.9,288.9,266.2,289z M164.7,144.6c-18.5,56,12,116.4,68,134.9s116.4-12,134.9-68&#10;&#9;&#9;c18.5-56-12-116.4-68-134.9C243.5,58.2,183.2,88.6,164.7,144.6L164.7,144.6z"/>
	
		<ellipse transform="matrix(0.3133 -0.9496 0.9496 0.3133 58.3163 398.9424)" class="st1_neutral-face-47" cx="305" cy="159.1" rx="17.6" ry="14.3"/>
	
		<ellipse transform="matrix(0.3133 -0.9496 0.9496 0.3133 36.2966 329.5468)" class="st1_neutral-face-47" cx="246" cy="139.7" rx="17.6" ry="14.3"/>
	<path class="st1_neutral-face-47" d="M331.9,214.2c-0.3,0-0.7,0-1-0.1l-138.4-45.7c-1.7-0.5-2.6-2.2-2.2-3.8s2.2-2.6,3.8-2.2c0.1,0,0.2,0.1,0.3,0.1&#10;&#9;&#9;l138.4,45.7c1.6,0.6,2.4,2.3,1.9,3.9C334.3,213.3,333.2,214.1,331.9,214.2L331.9,214.2z"/>
	<path class="st1_neutral-face-47" d="M250,432.9c-1.1,0-2.1-0.9-2.1-2.1v-67.2c0-1.1,0.9-2.1,2.1-2.1c1.1,0,2.1,0.9,2.1,2.1v67.2&#10;&#9;&#9;C252.1,432,251.1,432.9,250,432.9z"/>
	<path class="st1_neutral-face-47" d="M284.2,408.4c-0.4,0-0.8-0.1-1.1-0.3l-13.3-8.7c-0.6-0.4-0.9-1-0.9-1.7V371c0-1.1,0.9-2.1,2.1-2.1h26.6&#10;&#9;&#9;c1.1,0,2.1,0.9,2.1,2.1v26.6c0,0.7-0.3,1.3-0.9,1.7l-13.3,8.7C285,408.3,284.6,408.4,284.2,408.4z M272.9,396.5l11.3,7.4l11.3-7.4&#10;&#9;&#9;V373h-22.5V396.5z"/>
</g>
</svg>